<?xml version="1.0" encoding="utf-8"?>
<!-- Generator: Adobe Illustrator 15.0.0, SVG Export Plug-In . SVG Version: 6.00 Build 0)  -->
<!DOCTYPE svg PUBLIC "-//W3C//DTD SVG 1.1//EN" "http://www.w3.org/Graphics/SVG/1.1/DTD/svg11.dtd">
<svg version="1.1" id="Calque_1" xmlns="http://www.w3.org/2000/svg" xmlns:xlink="http://www.w3.org/1999/xlink" x="0px" y="0px"
	 width="24px" height="24px" viewBox="0 0 24 24" enable-background="new 0 0 24 24" xml:space="preserve">
<g>
	<g>
		<rect fill="#FFFFFF" width="24" height="24"/>
	</g>
	<g>
		<g>
			<path fill="#E6354E" d="M5.043,15.764c0,0.093,0.005,0.159,0.016,0.2l-1.611,1.611l-0.138-0.23l1.58-1.581H4.751l-1.488,1.489
				c-0.051-0.093-0.092-0.179-0.123-0.262l1.228-1.228H4.229l-1.137,1.136c-0.021-0.051-0.035-0.1-0.046-0.146
				C3.036,16.708,3.021,16.659,3,16.608l0.844-0.845H3.707l-0.736,0.737l-0.046-0.323l0.398-0.414H3.186l-0.276,0.292
				c-0.01-0.052-0.016-0.101-0.016-0.146c0-0.045,0-0.094,0-0.146v-4.297c0-0.438,0.084-0.855,0.253-1.249s0.399-0.737,0.69-1.029
				c0.292-0.291,0.632-0.521,1.021-0.69s0.809-0.253,1.258-0.253v0.062l0.062-0.062h0.384L6.115,8.69v0.137l0.568-0.582h0.383
				L6.114,9.212v0.123l1.091-1.09h0.384L6.115,9.718v0.14l1.611-1.611H8.11L6.115,10.24v0.139l2.134-2.133h0.016
				c0.062,0,0.12,0,0.176,0c0.057,0,0.116,0.005,0.177,0.016l-2.133,2.133H6.116c-0.297,0-0.55,0.105-0.76,0.314
				c-0.21,0.21-0.313,0.462-0.313,0.76V15.764L5.043,15.764z M5.089,16.087c0.02,0.051,0.039,0.093,0.061,0.13
				c0.021,0.036,0.041,0.079,0.062,0.131l-1.534,1.519c-0.031-0.031-0.06-0.064-0.084-0.1c-0.026-0.036-0.054-0.075-0.084-0.116
				L5.089,16.087z M5.272,16.423c0.021,0.031,0.046,0.065,0.076,0.101c0.031,0.036,0.067,0.064,0.108,0.085l-1.52,1.534l-0.199-0.2
				L5.272,16.423z M5.532,16.67c0.052,0.02,0.096,0.041,0.131,0.062c0.036,0.02,0.079,0.041,0.131,0.062l-1.58,1.579
				c-0.03-0.03-0.063-0.059-0.1-0.084c-0.036-0.024-0.069-0.054-0.101-0.084L5.532,16.67z M8.265,16.838
				c0.052,0,0.128-0.01,0.231-0.03l1.61,1.611c-0.082,0.041-0.138,0.075-0.169,0.106l-1.673-1.671v0.06l-0.092,0.093l0.077,0.077
				l0.016-0.031V17.1l1.519,1.504L9.6,18.695l-1.335-1.319v0.062l-0.092,0.091L8.25,17.59l0.016-0.015v0.046l1.151,1.151
				c-0.031,0.02-0.062,0.033-0.093,0.038c-0.03,0.006-0.067,0.017-0.107,0.038l-0.952-0.952v0.062l-0.092,0.093l0.077,0.062
				l0.016-0.017v0.03l0.768,0.769l-0.23,0.045l-0.537-0.537v0.077l-0.092,0.092l0.077,0.062l0.016-0.017v0.031l0.322,0.322
				c-0.052,0.011-0.098,0.017-0.139,0.017s-0.081,0-0.123,0l-0.062-0.062v0.062h-0.46l-0.03-0.017l-0.017,0.017H7.282l-0.016-0.017
				l-0.03,0.017H6.761l-0.016-0.017l-0.031,0.017H6.239l-0.016-0.017l-0.031,0.017H6.116c-0.051,0-0.1,0-0.146,0
				c-0.045,0-0.095-0.006-0.146-0.017l0.292-0.275v-0.108l0.046,0.047l0.124-0.123l-0.063-0.062l-0.521,0.507
				c-0.052-0.011-0.105-0.018-0.161-0.022c-0.057-0.005-0.109-0.018-0.162-0.038l0.736-0.723v-0.107l0.047,0.048l0.123-0.123
				l-0.062-0.062l-0.951,0.951c-0.051-0.021-0.1-0.035-0.146-0.045c-0.047-0.012-0.095-0.026-0.146-0.048l1.136-1.136v-0.105
				l0.046,0.044l0.122-0.122l-0.062-0.062l-1.335,1.336c-0.082-0.03-0.169-0.072-0.261-0.124l1.487-1.487v-0.107l0.047,0.06
				l0.123-0.121l-0.062-0.077l-1.688,1.688c-0.04-0.021-0.078-0.045-0.114-0.069c-0.036-0.025-0.075-0.054-0.114-0.084l1.596-1.595
				c0.051,0.01,0.123,0.015,0.214,0.015L8.265,16.838L8.265,16.838z M6.362,17.267l0.061,0.062l0.123-0.107l-0.062-0.078
				L6.362,17.267z M6.546,17.729l-0.062-0.062L6.362,17.79l0.061,0.061L6.546,17.729z M6.546,18.25l-0.062-0.062l-0.122,0.122
				l0.061,0.062L6.546,18.25z M6.546,18.772l-0.062-0.062l-0.122,0.123l0.061,0.062L6.546,18.772z M6.623,10.393L8.74,8.276
				c0.051,0.01,0.102,0.021,0.153,0.03c0.051,0.01,0.103,0.021,0.153,0.031l-2.041,2.057H6.623V10.393z M6.623,17.007l0.062,0.077
				l0.123-0.122l-0.062-0.078L6.623,17.007z M6.808,17.467l-0.062-0.062l-0.123,0.123l0.062,0.061L6.808,17.467z M6.808,17.987
				l-0.062-0.06L6.623,18.05l0.062,0.062L6.808,17.987z M6.808,18.511l-0.062-0.062l-0.123,0.123l0.062,0.062L6.808,18.511z
				 M7.067,17.222l-0.062-0.078l-0.122,0.123l0.061,0.062L7.067,17.222z M7.067,17.729l-0.062-0.062L6.884,17.79l0.061,0.061
				L7.067,17.729z M7.067,18.25l-0.062-0.062l-0.123,0.122l0.062,0.062L7.067,18.25z M7.067,18.772l-0.062-0.062l-0.123,0.123
				l0.062,0.062L7.067,18.772z M7.145,10.393l2.011-2.025c0.123,0.03,0.219,0.066,0.291,0.107l-1.918,1.918H7.145z M7.328,16.961
				l-0.062-0.077l-0.123,0.122l0.062,0.076L7.328,16.961z M7.328,17.467l-0.062-0.062l-0.123,0.123l0.062,0.061L7.328,17.467z
				 M7.328,17.987l-0.062-0.06L7.144,18.05l0.062,0.062L7.328,17.987z M7.328,18.511l-0.062-0.062l-0.123,0.123l0.062,0.062
				L7.328,18.511z M7.589,17.222l-0.077-0.078l-0.106,0.123l0.062,0.062L7.589,17.222z M7.589,17.729l-0.077-0.062L7.405,17.79
				l0.062,0.061L7.589,17.729z M7.589,18.25l-0.077-0.062l-0.106,0.122l0.062,0.062L7.589,18.25z M7.589,18.772l-0.077-0.062
				l-0.106,0.123l0.062,0.062L7.589,18.772z M7.851,16.961l-0.076-0.077L7.65,17.006l0.078,0.076L7.851,16.961z M7.851,17.467
				l-0.076-0.062L7.65,17.528l0.078,0.061L7.851,17.467z M7.851,17.987l-0.076-0.06L7.65,18.05l0.078,0.062L7.851,17.987z
				 M7.851,18.511l-0.076-0.062L7.65,18.572l0.078,0.062L7.851,18.511z M7.666,10.393l1.872-1.887
				c0.051,0.021,0.098,0.041,0.138,0.062c0.041,0.02,0.082,0.041,0.123,0.062l-1.765,1.764H7.666z M8.111,17.222l-0.077-0.078
				l-0.123,0.123l0.076,0.062L8.111,17.222z M8.111,17.729l-0.077-0.062L7.911,17.79l0.076,0.061L8.111,17.729z M8.111,18.25
				l-0.077-0.062l-0.123,0.122l0.076,0.062L8.111,18.25z M8.111,18.772l-0.077-0.062l-0.123,0.123l0.076,0.062L8.111,18.772z
				 M8.172,10.393l1.72-1.702c0.04,0.02,0.078,0.043,0.114,0.068s0.074,0.054,0.115,0.084l-1.596,1.58
				c-0.103-0.02-0.188-0.031-0.261-0.031L8.172,10.393L8.172,10.393z M8.879,10.593c-0.042-0.031-0.08-0.057-0.116-0.077
				c-0.035-0.021-0.078-0.041-0.13-0.062l1.565-1.564c0.04,0.03,0.077,0.062,0.107,0.092c0.03,0.031,0.066,0.062,0.107,0.092
				L8.879,10.593z M8.679,16.746c0.062-0.011,0.123-0.041,0.185-0.093l1.534,1.535c-0.04,0.021-0.092,0.062-0.153,0.122
				L8.679,16.746z M9.14,10.854c-0.041-0.071-0.103-0.138-0.185-0.199l1.519-1.519c0.041,0.031,0.077,0.062,0.108,0.093
				c0.03,0.03,0.062,0.062,0.092,0.092L9.14,10.854z M9.001,16.546c0.062-0.062,0.102-0.107,0.123-0.138l1.534,1.518l-0.138,0.139
				L9.001,16.546z M9.309,11.206c-0.021-0.051-0.039-0.097-0.055-0.138c-0.016-0.04-0.032-0.087-0.053-0.139l1.534-1.534
				c0.031,0.041,0.059,0.077,0.084,0.107c0.025,0.031,0.055,0.066,0.085,0.106L9.309,11.206z M9.217,16.255
				c0.03-0.072,0.056-0.139,0.077-0.199l1.596,1.581c-0.021,0.029-0.042,0.059-0.062,0.083c-0.021,0.025-0.042,0.049-0.062,0.069
				L9.217,16.255z M11.472,11.253c0.009,0.042,0.016,0.112,0.016,0.214v0.537H9.339v-0.537c0-0.062-0.005-0.106-0.016-0.138
				l1.626-1.625c0.031,0.041,0.06,0.078,0.085,0.113c0.025,0.037,0.048,0.075,0.069,0.115l-1.535,1.534h0.138l1.442-1.442
				c0.021,0.053,0.039,0.095,0.055,0.132c0.016,0.035,0.032,0.078,0.053,0.13l-1.166,1.181h0.123l1.09-1.074
				c0.021,0.052,0.036,0.101,0.047,0.146c0.009,0.047,0.024,0.095,0.045,0.146l-0.797,0.782h0.138l0.675-0.674
				c0.021,0.081,0.041,0.193,0.062,0.337l-0.353,0.337h0.138L11.472,11.253z M9.508,15.228l1.749,1.733
				c-0.021,0.052-0.051,0.117-0.092,0.199l-1.826-1.826v-0.106H9.508L9.508,15.228z M9.339,15.579l1.749,1.734
				c-0.021,0.03-0.038,0.061-0.053,0.092c-0.016,0.03-0.033,0.062-0.055,0.092L9.339,15.84v-0.076V15.579z M10.029,15.228
				l1.351,1.351c-0.021,0.081-0.041,0.153-0.062,0.215l-1.565-1.565H10.029z M10.551,15.228l0.905,0.92
				c0,0.052-0.01,0.128-0.03,0.231l-1.15-1.151H10.551z M11.073,15.228l0.414,0.413v0.123v0.155l-0.69-0.691H11.073z M11.318,15.228
				h0.169v0.168L11.318,15.228z"/>
		</g>
		<g>
			<path fill="#364D58" d="M14.646,13.554l-2.147-2.148c0-0.05,0-0.094,0-0.13c0-0.035,0.006-0.079,0.017-0.13l2.133,2.134v0.274
				H14.646z M14.646,14.076l-2.147-2.148v-0.276l2.147,2.148V14.076z M14.646,14.598l-2.147-2.148v-0.275l2.147,2.147V14.598z
				 M14.646,15.104l-2.147-2.147V12.68l2.147,2.148V15.104z M14.646,15.626l-2.147-2.148v-0.276l2.147,2.149V15.626z M17.886,16.838
				l1.674,1.673l-0.186,0.091l-1.504-1.503v0.245l1.35,1.351c-0.03,0.021-0.062,0.033-0.092,0.039
				c-0.03,0.004-0.065,0.018-0.106,0.039L17.87,17.62v0.246l0.982,0.968c-0.052,0.02-0.128,0.04-0.23,0.062l-0.752-0.753v0.229
				l0.552,0.568c-0.041,0.011-0.079,0.016-0.114,0.016c-0.036,0-0.075,0.005-0.115,0.016l-0.322-0.323v0.247l0.092,0.092H17.87
				h-2.147c-0.451,0-0.87-0.084-1.258-0.254c-0.391-0.169-0.73-0.399-1.021-0.691c-0.291-0.291-0.521-0.632-0.69-1.02
				c-0.17-0.39-0.254-0.808-0.254-1.259h0.2l-0.2-0.199v-0.275l0.478,0.475h0.244l-0.722-0.722v-0.275l0.999,0.997h0.244
				l-1.243-1.243v-0.275l1.52,1.519h0.247L12.499,14v-0.277l2.041,2.041h0.106c0,0.297,0.105,0.55,0.315,0.76
				c0.21,0.211,0.464,0.315,0.761,0.315h2.147L17.886,16.838L17.886,16.838z M14.646,13.032l-2.102-2.103l0.046-0.229l2.056,2.056
				V13.032z M14.646,12.511l-2.01-1.994c0.021-0.041,0.034-0.077,0.039-0.107c0.005-0.031,0.018-0.066,0.039-0.108l1.932,1.935
				V12.511z M14.646,11.989l-1.855-1.856l0.093-0.185l1.763,1.764V11.989z M14.646,11.483l-1.67-1.688
				c0.02-0.051,0.055-0.107,0.106-0.169l1.597,1.596c-0.021,0.103-0.031,0.185-0.031,0.245v0.016H14.646z M14.832,10.868
				c-0.021,0.021-0.038,0.047-0.054,0.078c-0.015,0.03-0.028,0.062-0.039,0.092l-1.564-1.55c0.021-0.02,0.044-0.046,0.069-0.077
				c0.024-0.03,0.049-0.056,0.068-0.076L14.832,10.868z M15.093,10.608c-0.042,0.02-0.092,0.062-0.153,0.123l-1.518-1.519
				l0.138-0.138L15.093,10.608z M15.445,10.438c-0.091,0.021-0.158,0.047-0.199,0.077l-1.549-1.55
				c0.02-0.021,0.047-0.04,0.077-0.062c0.03-0.021,0.056-0.041,0.077-0.062L15.445,10.438z M15.645,10.393l-1.641-1.641
				c0.03-0.031,0.086-0.066,0.169-0.108l1.564,1.564l0.123-0.123l-0.076-0.061l-0.062,0.061V9.948l-1.396-1.381
				c0.031-0.021,0.063-0.037,0.1-0.047s0.07-0.025,0.101-0.046l1.211,1.212l0.123-0.123l-0.076-0.062l-0.062,0.062V9.44
				l-1.029-1.027c0.042-0.021,0.08-0.034,0.115-0.039c0.036-0.005,0.07-0.013,0.102-0.023l0.827,0.829l0.123-0.123l-0.076-0.077
				l-0.062,0.077V8.918l-0.613-0.613c0.041-0.01,0.078-0.018,0.114-0.023c0.036-0.005,0.079-0.012,0.131-0.022l0.383,0.399
				l0.123-0.123l-0.076-0.077l-0.062,0.077V8.396l-0.154-0.153h0.154h0.291l-0.092,0.076l0.077,0.077l0.122-0.123l-0.03-0.03h0.445
				l-0.093,0.076l0.078,0.077l0.122-0.123l-0.03-0.03h0.431l-0.079,0.076l0.079,0.077l0.106-0.123l-0.016-0.03h0.43l-0.076,0.076
				l0.062,0.077l0.121-0.123l-0.016-0.03h0.215h0.216L17.87,8.458l-0.123,0.123l0.062,0.077l0.4-0.399
				c0.05,0.011,0.104,0.018,0.16,0.022c0.056,0.006,0.11,0.019,0.161,0.039l-0.66,0.659l-0.123,0.124l0.062,0.077l0.846-0.844
				c0.049,0.021,0.099,0.035,0.144,0.047c0.047,0.01,0.096,0.024,0.146,0.046l-1.075,1.074l-0.123,0.123l0.062,0.062l1.229-1.229
				c0.051,0.021,0.098,0.04,0.139,0.062c0.04,0.021,0.087,0.042,0.138,0.062l-1.442,1.442l-0.123,0.123l0.062,0.062l1.58-1.58
				c0.051,0.021,0.096,0.044,0.13,0.069c0.038,0.025,0.075,0.049,0.116,0.068l-1.626,1.642c-0.03-0.009-0.078-0.015-0.14-0.015
				h-0.244l0.046-0.047l-0.062-0.062l-0.107,0.106h-0.384l0.03-0.046l-0.062-0.062l-0.106,0.106h-0.385l0.047-0.046l-0.077-0.062
				l-0.107,0.107h-0.384l0.046-0.046l-0.077-0.062l-0.107,0.106h-0.215h-0.076V10.393z M15.922,8.844l0.077,0.077l0.122-0.123
				l-0.076-0.076L15.922,8.844z M15.922,9.364l0.077,0.062l0.122-0.123l-0.076-0.062L15.922,9.364z M15.922,9.888l0.077,0.062
				l0.122-0.123l-0.076-0.062L15.922,9.888z M16.182,8.582l0.078,0.077l0.122-0.123l-0.076-0.077L16.182,8.582z M16.182,9.104
				l0.078,0.077l0.122-0.123L16.306,8.98L16.182,9.104z M16.182,9.626l0.078,0.062l0.122-0.123l-0.076-0.062L16.182,9.626z
				 M16.182,10.147l0.078,0.062l0.122-0.123l-0.076-0.062L16.182,10.147z M16.443,8.844l0.078,0.077l0.121-0.123l-0.076-0.076
				L16.443,8.844z M16.443,9.364l0.078,0.062l0.121-0.123l-0.076-0.062L16.443,9.364z M16.443,9.888l0.078,0.062l0.121-0.123
				l-0.076-0.062L16.443,9.888z M16.703,8.582l0.078,0.077l0.123-0.123l-0.078-0.077L16.703,8.582z M16.703,9.104l0.078,0.077
				l0.123-0.123L16.826,8.98L16.703,9.104z M16.703,9.626l0.078,0.062l0.123-0.123l-0.078-0.062L16.703,9.626z M16.703,10.147
				l0.078,0.062l0.123-0.123l-0.078-0.062L16.703,10.147z M16.965,8.844l0.077,0.077l0.107-0.123l-0.062-0.076L16.965,8.844z
				 M16.965,9.364l0.077,0.062l0.107-0.123l-0.062-0.062L16.965,9.364z M16.965,9.888l0.077,0.062l0.107-0.123l-0.062-0.062
				L16.965,9.888z M17.227,8.582l0.061,0.077l0.123-0.123l-0.062-0.077L17.227,8.582z M17.227,9.104l0.061,0.077l0.123-0.123
				L17.349,8.98L17.227,9.104z M17.227,9.626l0.061,0.062l0.123-0.123l-0.062-0.062L17.227,9.626z M17.227,10.147l0.061,0.062
				l0.123-0.123l-0.062-0.062L17.227,10.147z M17.486,8.844l0.062,0.077l0.123-0.123l-0.062-0.076L17.486,8.844z M17.486,9.364
				l0.062,0.062l0.123-0.123l-0.062-0.062L17.486,9.364z M17.486,9.888l0.062,0.062l0.123-0.123l-0.062-0.062L17.486,9.888z
				 M18.101,16.808c0.081-0.021,0.153-0.041,0.215-0.062l1.55,1.55c-0.031,0.02-0.059,0.041-0.085,0.062
				c-0.025,0.02-0.054,0.041-0.084,0.062L18.101,16.808z M18.392,10.531c-0.061-0.04-0.152-0.076-0.275-0.106l1.596-1.598
				c0.071,0.052,0.143,0.108,0.215,0.17L18.392,10.531z M18.469,16.653c0.062-0.04,0.113-0.081,0.153-0.122l1.52,1.519
				c-0.062,0.062-0.113,0.108-0.153,0.139L18.469,16.653z M18.685,10.762c-0.03-0.03-0.062-0.062-0.093-0.092
				c-0.031-0.031-0.067-0.062-0.108-0.093l1.519-1.519c0.042,0.03,0.078,0.062,0.109,0.092c0.03,0.031,0.062,0.062,0.092,0.092
				L18.685,10.762z M18.729,16.409c0.031-0.041,0.066-0.104,0.108-0.185l1.549,1.549c-0.021,0.031-0.041,0.059-0.061,0.084
				c-0.022,0.026-0.041,0.05-0.062,0.07L18.729,16.409z M18.868,11.099c-0.031-0.082-0.072-0.169-0.123-0.261l1.519-1.519
				c0.062,0.071,0.117,0.143,0.17,0.215L18.868,11.099z M18.898,16.056c0.031-0.071,0.046-0.153,0.046-0.246l1.656,1.657
				c-0.019,0.031-0.038,0.062-0.053,0.092c-0.016,0.03-0.034,0.058-0.053,0.078L18.898,16.056z M21.093,15.764h-0.122l0.122,0.123
				c0,0.051-0.002,0.095-0.008,0.131c-0.006,0.035-0.013,0.079-0.022,0.13l-0.369-0.384h-0.246l0.584,0.584l-0.046,0.23
				l-0.812-0.814h-0.246l1.013,0.999c-0.02,0.04-0.036,0.076-0.046,0.106c-0.011,0.031-0.021,0.066-0.031,0.108l-1.212-1.214h-0.245
				l1.382,1.382c-0.042,0.082-0.072,0.139-0.094,0.169l-1.565-1.549h-0.183v-4.299c0-0.05-0.003-0.097-0.008-0.138
				c-0.006-0.041-0.015-0.087-0.023-0.138l1.581-1.581c0.03,0.042,0.059,0.08,0.084,0.115c0.025,0.036,0.047,0.074,0.068,0.115
				l-1.626,1.626h0.137l1.535-1.549c0.021,0.051,0.042,0.095,0.062,0.13c0.021,0.036,0.042,0.08,0.062,0.13l-1.274,1.289h0.14
				l1.18-1.197c0.021,0.052,0.039,0.101,0.055,0.146c0.015,0.047,0.032,0.094,0.054,0.146l-0.921,0.904h0.138l0.798-0.797
				c0.021,0.05,0.035,0.104,0.046,0.161c0.01,0.056,0.02,0.11,0.031,0.16l-0.492,0.476h0.139l0.369-0.353
				c0.011,0.052,0.016,0.107,0.016,0.169s0,0.123,0,0.185L21.093,15.764L21.093,15.764z"/>
		</g>
	</g>
	<g>
		<g>
			<path fill="#E6354E" d="M7.455,5.042C7.538,5.318,7.387,5.606,7.11,5.69C6.835,5.772,6.546,5.618,6.462,5.344
				C6.379,5.068,6.534,4.78,6.809,4.695C7.084,4.613,7.373,4.768,7.455,5.042"/>
		</g>
		<g>
			<path fill="#E6354E" d="M6.959,6.458c-0.562,0-1.047-0.361-1.211-0.898C5.546,4.895,5.924,4.188,6.589,3.982
				c0.692-0.208,1.383,0.187,1.58,0.843c0.202,0.669-0.176,1.376-0.841,1.579C7.205,6.441,7.083,6.458,6.959,6.458z M6.959,4.966
				c-0.021,0-0.043,0.003-0.063,0.009c-0.12,0.037-0.19,0.166-0.155,0.282C6.77,5.354,6.857,5.419,6.958,5.419
				c0.188-0.048,0.254-0.173,0.218-0.293C7.147,5.032,7.059,4.966,6.959,4.966z"/>
		</g>
	</g>
	<g>
		<path fill="#E6354E" d="M16.775,5.423H7.212c-0.147,0-0.268-0.12-0.268-0.267s0.12-0.267,0.268-0.267h9.563
			c0.146,0,0.267,0.12,0.267,0.267S16.922,5.423,16.775,5.423z"/>
	</g>
	<g>
		<g>
			<path fill="#364D58" d="M17.392,5.042c0.083,0.276-0.068,0.564-0.345,0.648c-0.273,0.082-0.564-0.072-0.646-0.346
				c-0.084-0.275,0.071-0.563,0.346-0.648C17.021,4.613,17.31,4.768,17.392,5.042"/>
			<path fill="#364D58" d="M16.897,6.087c-0.397,0-0.741-0.255-0.856-0.635c-0.143-0.47,0.123-0.97,0.594-1.115
				c0.483-0.144,0.976,0.132,1.116,0.596c0.143,0.473-0.125,0.973-0.595,1.117C17.071,6.075,16.985,6.087,16.897,6.087z
				 M16.896,5.049c-0.117,0.03-0.161,0.108-0.138,0.186c0.027,0.09,0.114,0.118,0.181,0.097c0.076-0.023,0.118-0.103,0.095-0.181
				C17.013,5.08,16.95,5.049,16.896,5.049z"/>
		</g>
		<g>
			<circle fill="#364D58" cx="16.896" cy="5.193" r="0.519"/>
			<path fill="#364D58" d="M16.897,6.458c-0.562,0-1.048-0.361-1.212-0.898c-0.201-0.665,0.175-1.372,0.841-1.578
				c0.692-0.208,1.381,0.187,1.58,0.841c0.201,0.671-0.177,1.378-0.843,1.58C17.144,6.441,17.021,6.458,16.897,6.458z M16.897,4.966
				c-0.022,0-0.044,0.003-0.064,0.009c-0.12,0.037-0.19,0.165-0.155,0.281c0.03,0.099,0.117,0.163,0.218,0.163
				c0.188-0.048,0.254-0.174,0.219-0.293C17.085,5.032,16.996,4.966,16.897,4.966z"/>
		</g>
	</g>
</g>
</svg>
