<?xml version="1.0" encoding="utf-8"?>
<!-- Generator: Adobe Illustrator 15.0.0, SVG Export Plug-In . SVG Version: 6.00 Build 0)  -->
<!DOCTYPE svg PUBLIC "-//W3C//DTD SVG 1.1//EN" "http://www.w3.org/Graphics/SVG/1.1/DTD/svg11.dtd">
<svg version="1.1" id="Calque_1" xmlns="http://www.w3.org/2000/svg" xmlns:xlink="http://www.w3.org/1999/xlink" x="0px" y="0px"
	 width="32px" height="32px" viewBox="0 0 32 32" enable-background="new 0 0 32 32" xml:space="preserve">
<g>
	<g>
		<rect fill="#FFFFFF" width="32" height="32"/>
	</g>
	<g>
		<g>
			<path fill="#E6344D" d="M6.723,21.02c0,0.122,0.007,0.211,0.021,0.266l-2.148,2.148l-0.184-0.307l2.107-2.107H6.334L4.35,23.004
				c-0.068-0.123-0.123-0.238-0.164-0.348l1.637-1.637H5.638l-1.514,1.514c-0.028-0.068-0.048-0.133-0.062-0.195
				c-0.014-0.061-0.034-0.125-0.062-0.193l1.125-1.125H4.943l-0.982,0.981l-0.062-0.43l0.532-0.552H4.247l-0.368,0.389
				c-0.014-0.068-0.021-0.134-0.021-0.195c0-0.061,0-0.125,0-0.193V15.29c0-0.586,0.112-1.142,0.337-1.667
				c0.225-0.525,0.532-0.982,0.921-1.371s0.842-0.696,1.36-0.921s1.078-0.337,1.678-0.337v0.082l0.082-0.082h0.511l-0.593,0.593
				v0.184l0.757-0.777h0.511l-1.269,1.289v0.164l1.453-1.453h0.512l-1.964,1.964v0.185l2.148-2.148h0.512l-2.66,2.66v0.184
				l2.844-2.844h0.021c0.082,0,0.16,0,0.235,0c0.075,0,0.154,0.007,0.235,0.021l-2.844,2.844H8.155c-0.396,0-0.733,0.14-1.013,0.419
				c-0.28,0.28-0.419,0.617-0.419,1.013V21.02z M6.784,21.449c0.027,0.068,0.054,0.125,0.082,0.174
				c0.027,0.047,0.054,0.105,0.082,0.174l-2.046,2.025c-0.041-0.041-0.079-0.086-0.112-0.133c-0.035-0.049-0.072-0.1-0.113-0.154
				L6.784,21.449z M7.03,21.898c0.027,0.041,0.061,0.086,0.102,0.133c0.041,0.049,0.089,0.086,0.144,0.113L5.25,24.189l-0.266-0.266
				L7.03,21.898z M7.377,22.227c0.068,0.027,0.126,0.055,0.174,0.081c0.048,0.028,0.105,0.055,0.174,0.082l-2.107,2.107
				c-0.041-0.041-0.085-0.078-0.133-0.112s-0.092-0.072-0.133-0.113L7.377,22.227z M11.02,22.451c0.068,0,0.17-0.014,0.307-0.041
				l2.148,2.148c-0.109,0.055-0.184,0.102-0.225,0.143l-2.23-2.229v0.081l-0.123,0.123l0.103,0.103l0.021-0.041v0.062l2.025,2.005
				l-0.246,0.123l-1.78-1.76v0.082l-0.123,0.122l0.103,0.082l0.021-0.02v0.061l1.534,1.535c-0.041,0.027-0.082,0.044-0.123,0.051
				c-0.041,0.008-0.089,0.023-0.144,0.051l-1.268-1.268v0.082l-0.123,0.122l0.103,0.082l0.021-0.021v0.041l1.023,1.023l-0.307,0.061
				l-0.716-0.716v0.103l-0.123,0.123l0.103,0.081l0.021-0.021v0.041l0.429,0.43c-0.068,0.014-0.129,0.021-0.184,0.021
				s-0.109,0-0.164,0l-0.082-0.082v0.082h-0.614l-0.041-0.021l-0.021,0.021H9.71l-0.021-0.021l-0.041,0.021H9.014l-0.021-0.021
				l-0.041,0.021H8.319l-0.021-0.021l-0.041,0.021H8.155c-0.068,0-0.133,0-0.194,0c-0.061,0-0.126-0.007-0.194-0.021l0.389-0.368
				v-0.144l0.062,0.062l0.164-0.163L8.298,24.6l-0.696,0.675c-0.068-0.013-0.14-0.023-0.215-0.03
				c-0.075-0.007-0.146-0.023-0.215-0.051l0.982-0.963v-0.143l0.062,0.062l0.164-0.164l-0.082-0.081L7.03,25.172
				c-0.068-0.027-0.133-0.047-0.194-0.061c-0.062-0.014-0.126-0.034-0.194-0.062l1.514-1.514v-0.143l0.062,0.061L8.38,23.29
				l-0.082-0.082l-1.78,1.78c-0.109-0.041-0.225-0.096-0.348-0.164l1.984-1.984v-0.143l0.062,0.081l0.164-0.163l-0.082-0.104
				l-2.251,2.252c-0.054-0.027-0.105-0.059-0.153-0.093S5.795,24.6,5.741,24.559l2.128-2.128c0.068,0.014,0.164,0.021,0.286,0.021
				H11.02z M8.482,23.023l0.082,0.082l0.164-0.143L8.646,22.86L8.482,23.023z M8.728,23.638l-0.082-0.082L8.482,23.72l0.082,0.081
				L8.728,23.638z M8.728,24.334l-0.082-0.082l-0.164,0.163l0.082,0.082L8.728,24.334z M8.728,25.029l-0.082-0.082l-0.164,0.164
				l0.082,0.082L8.728,25.029z M8.83,13.858l2.823-2.823c0.068,0.014,0.136,0.027,0.205,0.041c0.068,0.014,0.136,0.027,0.205,0.041
				l-2.721,2.742H8.83z M8.83,22.676l0.082,0.103l0.164-0.163l-0.082-0.104L8.83,22.676z M9.076,23.29l-0.082-0.082L8.83,23.371
				l0.082,0.082L9.076,23.29z M9.076,23.985l-0.082-0.081L8.83,24.067l0.082,0.082L9.076,23.985z M9.076,24.682L8.994,24.6
				L8.83,24.764l0.082,0.081L9.076,24.682z M9.423,22.963L9.342,22.86l-0.164,0.163l0.082,0.082L9.423,22.963z M9.423,23.638
				l-0.082-0.082L9.178,23.72l0.082,0.081L9.423,23.638z M9.423,24.334l-0.082-0.082l-0.164,0.163l0.082,0.082L9.423,24.334z
				 M9.423,25.029l-0.082-0.082l-0.164,0.164l0.082,0.082L9.423,25.029z M9.526,13.858l2.68-2.701
				c0.164,0.041,0.293,0.089,0.389,0.143l-2.558,2.558H9.526z M9.771,22.615l-0.082-0.104l-0.164,0.164l0.082,0.103L9.771,22.615z
				 M9.771,23.29l-0.082-0.082l-0.164,0.163l0.082,0.082L9.771,23.29z M9.771,23.985l-0.082-0.081l-0.164,0.163l0.082,0.082
				L9.771,23.985z M9.771,24.682L9.689,24.6l-0.164,0.164l0.082,0.081L9.771,24.682z M10.119,22.963l-0.103-0.103l-0.143,0.163
				l0.082,0.082L10.119,22.963z M10.119,23.638l-0.103-0.082L9.874,23.72l0.082,0.081L10.119,23.638z M10.119,24.334l-0.103-0.082
				l-0.143,0.163l0.082,0.082L10.119,24.334z M10.119,25.029l-0.103-0.082l-0.143,0.164l0.082,0.082L10.119,25.029z M10.467,22.615
				l-0.102-0.104l-0.164,0.164l0.103,0.103L10.467,22.615z M10.467,23.29l-0.102-0.082l-0.164,0.163l0.103,0.082L10.467,23.29z
				 M10.467,23.985l-0.102-0.081l-0.164,0.163l0.103,0.082L10.467,23.985z M10.467,24.682L10.365,24.6l-0.164,0.164l0.103,0.081
				L10.467,24.682z M10.221,13.858l2.496-2.517c0.068,0.028,0.13,0.055,0.184,0.082c0.055,0.027,0.109,0.055,0.164,0.082
				l-2.353,2.353H10.221z M10.815,22.963l-0.103-0.103l-0.164,0.163l0.102,0.082L10.815,22.963z M10.815,23.638l-0.103-0.082
				l-0.164,0.164l0.102,0.081L10.815,23.638z M10.815,24.334l-0.103-0.082l-0.164,0.163l0.102,0.082L10.815,24.334z M10.815,25.029
				l-0.103-0.082l-0.164,0.164l0.102,0.082L10.815,25.029z M10.896,13.858l2.292-2.271c0.054,0.027,0.105,0.058,0.153,0.092
				s0.099,0.071,0.154,0.112l-2.128,2.107c-0.137-0.027-0.252-0.041-0.348-0.041H10.896z M11.838,14.124
				c-0.055-0.041-0.106-0.075-0.154-0.103c-0.048-0.027-0.105-0.054-0.174-0.082l2.087-2.087c0.054,0.041,0.103,0.082,0.143,0.123
				c0.041,0.041,0.089,0.082,0.144,0.123L11.838,14.124z M11.572,22.328c0.082-0.014,0.164-0.055,0.246-0.123l2.046,2.047
				c-0.055,0.027-0.123,0.082-0.205,0.163L11.572,22.328z M12.186,14.472c-0.055-0.095-0.137-0.184-0.246-0.266l2.025-2.025
				c0.055,0.041,0.103,0.082,0.144,0.123c0.041,0.041,0.082,0.082,0.123,0.123L12.186,14.472z M12.001,22.062
				c0.082-0.082,0.136-0.144,0.164-0.184l2.046,2.025l-0.184,0.184L12.001,22.062z M12.411,14.942
				c-0.027-0.068-0.051-0.129-0.072-0.184c-0.021-0.054-0.044-0.116-0.071-0.184l2.046-2.046c0.041,0.054,0.078,0.102,0.112,0.143
				s0.072,0.089,0.113,0.143L12.411,14.942z M12.288,21.674c0.041-0.096,0.075-0.185,0.103-0.266l2.128,2.107
				c-0.028,0.04-0.055,0.078-0.082,0.111c-0.027,0.035-0.055,0.065-0.082,0.093L12.288,21.674z M15.295,15.004
				c0.013,0.055,0.021,0.15,0.021,0.286v0.716h-2.864V15.29c0-0.082-0.007-0.143-0.021-0.184l2.168-2.168
				c0.041,0.055,0.079,0.105,0.113,0.153c0.034,0.048,0.064,0.099,0.092,0.153l-2.046,2.046h0.184l1.923-1.923
				c0.027,0.069,0.051,0.126,0.072,0.174s0.044,0.105,0.071,0.174l-1.555,1.575h0.164l1.453-1.432
				c0.027,0.068,0.048,0.133,0.062,0.194c0.013,0.062,0.034,0.126,0.061,0.194l-1.063,1.043h0.184l0.9-0.9
				c0.027,0.109,0.055,0.259,0.082,0.45l-0.471,0.45h0.184L15.295,15.004z M12.677,20.303l2.332,2.312
				c-0.027,0.068-0.068,0.156-0.123,0.266l-2.435-2.436v-0.143H12.677z M12.452,20.773l2.332,2.312
				c-0.027,0.041-0.051,0.081-0.071,0.122s-0.044,0.082-0.072,0.123l-2.189-2.21V21.02V20.773z M13.372,20.303l1.801,1.801
				c-0.028,0.109-0.055,0.204-0.082,0.286l-2.087-2.087H13.372z M14.068,20.303l1.207,1.228c0,0.068-0.014,0.171-0.041,0.308
				L13.7,20.303H14.068z M14.764,20.303l0.552,0.553v0.164v0.204l-0.921-0.921H14.764z M15.091,20.303h0.225v0.225L15.091,20.303z"
				/>
		</g>
		<g>
			<path fill="#354C57" d="M19.53,18.072l-2.864-2.864c0-0.068,0-0.126,0-0.174c0-0.047,0.007-0.105,0.021-0.174l2.844,2.845V18.072
				z M19.53,18.769l-2.864-2.865v-0.368L19.53,18.4V18.769z M19.53,19.464L16.666,16.6v-0.368l2.864,2.864V19.464z M19.53,20.139
				l-2.864-2.863v-0.369l2.864,2.865V20.139z M19.53,20.835l-2.864-2.864v-0.369l2.864,2.865V20.835z M23.848,22.451l2.23,2.23
				l-0.246,0.122l-2.005-2.005v0.328l1.8,1.8c-0.041,0.027-0.082,0.044-0.123,0.052c-0.04,0.006-0.088,0.023-0.143,0.051
				l-1.534-1.535v0.328l1.31,1.289c-0.068,0.027-0.171,0.055-0.307,0.082l-1.003-1.004v0.308l0.736,0.757
				c-0.055,0.014-0.106,0.021-0.153,0.021c-0.048,0-0.1,0.007-0.154,0.021l-0.429-0.43v0.328l0.122,0.122h-0.122h-2.864
				c-0.601,0-1.16-0.112-1.678-0.337c-0.52-0.226-0.973-0.533-1.361-0.922s-0.695-0.842-0.92-1.359
				c-0.226-0.52-0.338-1.078-0.338-1.678h0.266l-0.266-0.267v-0.368l0.635,0.635h0.326l-0.961-0.963v-0.367l1.33,1.33h0.327
				l-1.657-1.658v-0.368l2.025,2.026h0.328l-2.354-2.354v-0.368l2.721,2.722h0.144c0,0.395,0.14,0.732,0.419,1.012
				c0.279,0.28,0.617,0.42,1.014,0.42h2.864H23.848z M19.53,17.377l-2.803-2.803l0.061-0.307l2.742,2.742V17.377z M19.53,16.682
				l-2.68-2.66c0.027-0.054,0.044-0.102,0.051-0.143c0.007-0.041,0.023-0.088,0.051-0.143l2.578,2.578V16.682z M19.53,15.986
				l-2.476-2.476l0.123-0.246l2.353,2.353V15.986z M19.53,15.311l-2.229-2.25c0.027-0.068,0.074-0.143,0.143-0.225l2.128,2.128
				c-0.027,0.136-0.041,0.246-0.041,0.327V15.311z M19.775,14.492c-0.027,0.027-0.051,0.062-0.071,0.103
				c-0.021,0.041-0.038,0.082-0.051,0.123l-2.087-2.066c0.027-0.027,0.058-0.062,0.092-0.103c0.034-0.041,0.064-0.075,0.092-0.102
				L19.775,14.492z M20.123,14.145c-0.055,0.027-0.122,0.082-0.204,0.164l-2.025-2.025l0.185-0.184L20.123,14.145z M20.594,13.919
				c-0.122,0.027-0.211,0.062-0.266,0.102l-2.066-2.066c0.027-0.027,0.062-0.054,0.103-0.082s0.075-0.055,0.103-0.082L20.594,13.919
				z M20.86,13.858l-2.189-2.189c0.041-0.041,0.116-0.089,0.226-0.144l2.086,2.087l0.164-0.164l-0.102-0.082l-0.082,0.082v-0.184
				l-1.862-1.841c0.041-0.027,0.085-0.048,0.134-0.062c0.047-0.013,0.092-0.034,0.133-0.062l1.615,1.617l0.164-0.164l-0.102-0.082
				l-0.082,0.082v-0.164l-1.371-1.371c0.055-0.027,0.105-0.044,0.153-0.051s0.093-0.017,0.134-0.031l1.104,1.105l0.164-0.164
				l-0.102-0.103l-0.082,0.103v-0.184l-0.818-0.818c0.055-0.014,0.105-0.024,0.153-0.031s0.105-0.017,0.174-0.031l0.511,0.532
				l0.164-0.164l-0.102-0.102l-0.082,0.102v-0.184l-0.205-0.205h0.205h0.389l-0.123,0.102l0.103,0.103l0.163-0.164l-0.041-0.041
				h0.594l-0.123,0.102l0.103,0.103l0.163-0.164l-0.04-0.041h0.573l-0.104,0.102l0.104,0.103l0.143-0.164l-0.021-0.041h0.573
				l-0.103,0.102l0.082,0.103l0.163-0.164l-0.02-0.041h0.286h0.286l-0.286,0.287l-0.164,0.164l0.082,0.102l0.532-0.532
				c0.068,0.014,0.139,0.024,0.215,0.031c0.074,0.007,0.146,0.024,0.215,0.051l-0.88,0.88l-0.164,0.164l0.082,0.103l1.126-1.125
				c0.067,0.028,0.133,0.048,0.193,0.062c0.062,0.014,0.127,0.034,0.195,0.062l-1.433,1.432l-0.164,0.164l0.082,0.082l1.637-1.637
				c0.068,0.027,0.13,0.054,0.185,0.082c0.054,0.027,0.115,0.055,0.184,0.082l-1.923,1.923l-0.164,0.164l0.082,0.082l2.107-2.107
				c0.067,0.028,0.126,0.059,0.174,0.092c0.048,0.034,0.099,0.065,0.153,0.092l-2.168,2.189c-0.041-0.013-0.104-0.021-0.185-0.021
				H23.5l0.061-0.062l-0.082-0.082l-0.143,0.143h-0.512l0.041-0.062l-0.082-0.082l-0.143,0.143h-0.512l0.061-0.062l-0.102-0.082
				l-0.143,0.143h-0.512l0.061-0.062l-0.102-0.082l-0.144,0.143h-0.286H20.86z M21.229,11.792l0.103,0.103l0.163-0.164l-0.102-0.102
				L21.229,11.792z M21.229,12.487l0.103,0.082l0.163-0.164l-0.102-0.082L21.229,12.487z M21.229,13.183l0.103,0.082l0.163-0.164
				l-0.102-0.082L21.229,13.183z M21.576,11.444l0.103,0.102l0.163-0.164L21.74,11.28L21.576,11.444z M21.576,12.139l0.103,0.103
				l0.163-0.164l-0.102-0.103L21.576,12.139z M21.576,12.835l0.103,0.082l0.163-0.164l-0.102-0.082L21.576,12.835z M21.576,13.531
				l0.103,0.082l0.163-0.164l-0.102-0.082L21.576,13.531z M21.924,11.792l0.103,0.103l0.163-0.164l-0.102-0.102L21.924,11.792z
				 M21.924,12.487l0.103,0.082l0.163-0.164l-0.102-0.082L21.924,12.487z M21.924,13.183l0.103,0.082l0.163-0.164l-0.102-0.082
				L21.924,13.183z M22.271,11.444l0.104,0.102l0.163-0.164l-0.103-0.102L22.271,11.444z M22.271,12.139l0.104,0.103l0.163-0.164
				l-0.103-0.103L22.271,12.139z M22.271,12.835l0.104,0.082l0.163-0.164l-0.103-0.082L22.271,12.835z M22.271,13.531l0.104,0.082
				l0.163-0.164l-0.103-0.082L22.271,13.531z M22.619,11.792l0.104,0.103l0.143-0.164l-0.082-0.102L22.619,11.792z M22.619,12.487
				l0.104,0.082l0.143-0.164l-0.082-0.082L22.619,12.487z M22.619,13.183l0.104,0.082l0.143-0.164l-0.082-0.082L22.619,13.183z
				 M22.968,11.444l0.081,0.102l0.164-0.164l-0.082-0.102L22.968,11.444z M22.968,12.139l0.081,0.103l0.164-0.164l-0.082-0.103
				L22.968,12.139z M22.968,12.835l0.081,0.082l0.164-0.164l-0.082-0.082L22.968,12.835z M22.968,13.531l0.081,0.082l0.164-0.164
				l-0.082-0.082L22.968,13.531z M23.315,11.792l0.082,0.103l0.163-0.164l-0.082-0.102L23.315,11.792z M23.315,12.487l0.082,0.082
				l0.163-0.164l-0.082-0.082L23.315,12.487z M23.315,13.183l0.082,0.082l0.163-0.164l-0.082-0.082L23.315,13.183z M24.134,22.41
				c0.108-0.027,0.204-0.055,0.286-0.082l2.066,2.066c-0.041,0.027-0.078,0.055-0.112,0.082s-0.071,0.055-0.112,0.082L24.134,22.41z
				 M24.522,14.042c-0.081-0.054-0.204-0.102-0.368-0.143l2.128-2.128c0.095,0.068,0.19,0.143,0.286,0.225L24.522,14.042z
				 M24.625,22.205c0.082-0.054,0.15-0.108,0.205-0.163l2.025,2.025c-0.082,0.082-0.15,0.144-0.205,0.185L24.625,22.205z
				 M24.911,14.349c-0.04-0.041-0.081-0.082-0.122-0.123c-0.041-0.041-0.09-0.082-0.144-0.123l2.025-2.025
				c0.054,0.041,0.103,0.082,0.144,0.123s0.082,0.082,0.123,0.123L24.911,14.349z M24.973,21.879
				c0.041-0.055,0.088-0.137,0.143-0.246l2.066,2.066c-0.027,0.041-0.055,0.078-0.081,0.112c-0.028,0.034-0.055,0.065-0.082,0.093
				L24.973,21.879z M25.156,14.799c-0.041-0.109-0.096-0.225-0.163-0.348l2.025-2.025c0.082,0.096,0.157,0.191,0.226,0.287
				L25.156,14.799z M25.197,21.408c0.041-0.096,0.062-0.205,0.062-0.328l2.209,2.21c-0.027,0.041-0.051,0.081-0.072,0.122
				c-0.02,0.041-0.044,0.076-0.07,0.104L25.197,21.408z M28.123,21.02H27.96l0.163,0.163c0,0.068-0.003,0.126-0.01,0.174
				s-0.018,0.106-0.031,0.174l-0.49-0.511h-0.328l0.777,0.777l-0.061,0.307l-1.084-1.084h-0.328l1.351,1.329
				c-0.027,0.055-0.048,0.103-0.062,0.144s-0.027,0.089-0.041,0.143L26.2,21.02h-0.327l1.842,1.841
				c-0.055,0.109-0.096,0.185-0.123,0.226l-2.088-2.066H25.26V15.29c0-0.068-0.004-0.129-0.011-0.184
				c-0.007-0.054-0.018-0.116-0.03-0.184l2.107-2.107c0.041,0.055,0.078,0.106,0.111,0.153c0.035,0.048,0.064,0.099,0.093,0.154
				l-2.169,2.168h0.184l2.047-2.066c0.027,0.068,0.055,0.126,0.082,0.174c0.027,0.048,0.054,0.106,0.082,0.174l-1.699,1.718h0.185
				l1.575-1.596c0.027,0.068,0.051,0.133,0.072,0.194c0.02,0.062,0.043,0.126,0.071,0.194l-1.228,1.207h0.184l1.064-1.064
				c0.027,0.068,0.047,0.14,0.061,0.215c0.014,0.075,0.027,0.147,0.041,0.215l-0.654,0.634h0.184l0.492-0.47
				c0.013,0.068,0.02,0.143,0.02,0.225c0,0.082,0,0.164,0,0.246V21.02z"/>
		</g>
	</g>
	<g>
		<g>
			<path fill="#E6344D" d="M9.94,6.723c0.111,0.368-0.092,0.752-0.46,0.864c-0.367,0.11-0.752-0.096-0.864-0.462
				C8.505,6.759,8.712,6.374,9.078,6.261C9.445,6.151,9.83,6.358,9.94,6.723"/>
		</g>
		<g>
			<path fill="#E6344D" d="M9.279,8.612c-0.749,0-1.397-0.481-1.615-1.198c-0.269-0.887,0.234-1.83,1.121-2.104
				c0.923-0.277,1.843,0.25,2.107,1.125C11.161,7.326,10.657,8.27,9.77,8.54C9.607,8.588,9.444,8.612,9.279,8.612z M9.279,6.622
				c-0.029,0-0.058,0.004-0.085,0.012C9.034,6.683,8.94,6.855,8.987,7.01c0.039,0.13,0.156,0.216,0.291,0.216
				c0.25-0.063,0.338-0.231,0.29-0.39C9.53,6.71,9.411,6.622,9.279,6.622z"/>
		</g>
	</g>
	<g>
		<path fill="#E6344D" d="M22.366,7.231H9.616c-0.197,0-0.356-0.16-0.356-0.356s0.16-0.356,0.356-0.356h12.75
			c0.197,0,0.356,0.16,0.356,0.356S22.563,7.231,22.366,7.231z"/>
	</g>
	<g>
		<g>
			<path fill="#354C57" d="M23.19,6.723c0.11,0.368-0.093,0.752-0.461,0.864c-0.366,0.11-0.752-0.096-0.863-0.462
				c-0.111-0.366,0.096-0.751,0.462-0.864C22.695,6.151,23.079,6.358,23.19,6.723"/>
			<path fill="#354C57" d="M22.529,8.117c-0.529,0-0.987-0.34-1.142-0.847c-0.19-0.626,0.165-1.293,0.793-1.487
				c0.644-0.192,1.3,0.176,1.488,0.794c0.189,0.631-0.167,1.298-0.794,1.489C22.761,8.1,22.646,8.117,22.529,8.117z M22.528,6.732
				c-0.157,0.04-0.215,0.145-0.184,0.248c0.036,0.12,0.152,0.157,0.241,0.129c0.101-0.031,0.157-0.137,0.126-0.242
				C22.684,6.774,22.599,6.732,22.528,6.732z"/>
		</g>
		<g>
			<circle fill="#354C57" cx="22.528" cy="6.924" r="0.692"/>
			<path fill="#354C57" d="M22.529,8.612c-0.749,0-1.397-0.481-1.615-1.198c-0.27-0.886,0.233-1.83,1.121-2.104
				c0.923-0.277,1.841,0.25,2.107,1.122c0.268,0.894-0.236,1.837-1.124,2.107C22.857,8.588,22.693,8.612,22.529,8.612z
				 M22.529,6.622c-0.029,0-0.059,0.004-0.086,0.012c-0.159,0.049-0.253,0.22-0.206,0.375c0.04,0.132,0.156,0.217,0.291,0.217
				c0.25-0.063,0.338-0.232,0.29-0.391C22.78,6.71,22.661,6.622,22.529,6.622z"/>
		</g>
	</g>
</g>
</svg>
